<?xml version="1.0" encoding="UTF-8" standalone="no"?>
<!DOCTYPE svg PUBLIC "-//W3C//DTD SVG 1.1//EN"
 "http://www.w3.org/Graphics/SVG/1.1/DTD/svg11.dtd">
<!-- Generated by graphviz version 13.0.1 (20250615.1724)
 -->
<!-- Title: tforder Pages: 1 -->
<svg width="616pt" height="152pt"
 viewBox="0.00 0.00 616.00 152.00" xmlns="http://www.w3.org/2000/svg" xmlns:xlink="http://www.w3.org/1999/xlink">
<g id="graph0" class="graph" transform="scale(1 1) rotate(0) translate(4 148)">
<title>tforder</title>
<polygon fill="#fafafa" stroke="none" points="-4,4 -4,-148 611.5,-148 611.5,4 -4,4"/>
<!-- dev/eu&#45;west&#45;1/ew1a/vpc -->
<g id="node1" class="node">
<title>dev/eu&#45;west&#45;1/ew1a/vpc</title>
<polygon fill="#e3f2fd" stroke="#1976d2" points="403.25,-90 241.75,-90 241.75,-54 403.25,-54 403.25,-90"/>
<text xml:space="preserve" text-anchor="middle" x="322.5" y="-66.2" font-family="Helvetica,sans-Serif" font-size="14.00">dev/eu&#45;west&#45;1/ew1a/vpc</text>
</g>
<!-- dev/eu&#45;west&#45;1/ew1a/eks -->
<g id="node2" class="node">
<title>dev/eu&#45;west&#45;1/ew1a/eks</title>
<polygon fill="#e3f2fd" stroke="#1976d2" points="605.25,-90 443.75,-90 443.75,-54 605.25,-54 605.25,-90"/>
<text xml:space="preserve" text-anchor="middle" x="524.5" y="-66.2" font-family="Helvetica,sans-Serif" font-size="14.00">dev/eu&#45;west&#45;1/ew1a/eks</text>
</g>
<!-- dev/eu&#45;west&#45;1/ew1a/vpc&#45;&gt;dev/eu&#45;west&#45;1/ew1a/eks -->
<g id="edge1" class="edge">
<title>dev/eu&#45;west&#45;1/ew1a/vpc&#45;&gt;dev/eu&#45;west&#45;1/ew1a/eks</title>
<path fill="none" stroke="#1976d2" stroke-width="2" d="M403.7,-72C413.17,-72 422.89,-72 432.5,-72"/>
<polygon fill="#1976d2" stroke="#1976d2" stroke-width="2" points="432.26,-74.8 440.26,-72 432.26,-69.2 432.26,-74.8"/>
</g>
<!-- dev/global/shared/apex_zones -->
<g id="node3" class="node">
<title>dev/global/shared/apex_zones</title>
<polygon fill="#e3f2fd" stroke="#1976d2" points="201.25,-63 2.25,-63 2.25,-27 201.25,-27 201.25,-63"/>
<text xml:space="preserve" text-anchor="middle" x="101.75" y="-39.2" font-family="Helvetica,sans-Serif" font-size="14.00">dev/global/shared/apex_zones</text>
</g>
<!-- dev/global/shared/apex_zones&#45;&gt;dev/eu&#45;west&#45;1/ew1a/vpc -->
<g id="edge2" class="edge">
<title>dev/global/shared/apex_zones&#45;&gt;dev/eu&#45;west&#45;1/ew1a/vpc</title>
<path fill="none" stroke="#1976d2" stroke-width="2" d="M201.57,-57.2C211.27,-58.39 221.09,-59.61 230.71,-60.79"/>
<polygon fill="#1976d2" stroke="#1976d2" stroke-width="2" points="230.19,-63.55 238.47,-61.75 230.87,-57.99 230.19,-63.55"/>
</g>
<!-- dev/eu&#45;west&#45;1/ew1b/vpc -->
<g id="node4" class="node">
<title>dev/eu&#45;west&#45;1/ew1b/vpc</title>
<polygon fill="#e3f2fd" stroke="#1976d2" points="403.25,-36 241.75,-36 241.75,0 403.25,0 403.25,-36"/>
<text xml:space="preserve" text-anchor="middle" x="322.5" y="-12.2" font-family="Helvetica,sans-Serif" font-size="14.00">dev/eu&#45;west&#45;1/ew1b/vpc</text>
</g>
<!-- dev/global/shared/apex_zones&#45;&gt;dev/eu&#45;west&#45;1/ew1b/vpc -->
<g id="edge4" class="edge">
<title>dev/global/shared/apex_zones&#45;&gt;dev/eu&#45;west&#45;1/ew1b/vpc</title>
<path fill="none" stroke="#1976d2" stroke-width="2" d="M201.57,-32.8C211.27,-31.61 221.09,-30.39 230.71,-29.21"/>
<polygon fill="#1976d2" stroke="#1976d2" stroke-width="2" points="230.87,-32.01 238.47,-28.25 230.19,-26.45 230.87,-32.01"/>
</g>
<!-- dev/eu&#45;west&#45;1/ew1b/eks -->
<g id="node5" class="node">
<title>dev/eu&#45;west&#45;1/ew1b/eks</title>
<polygon fill="#e3f2fd" stroke="#1976d2" points="605.25,-36 443.75,-36 443.75,0 605.25,0 605.25,-36"/>
<text xml:space="preserve" text-anchor="middle" x="524.5" y="-12.2" font-family="Helvetica,sans-Serif" font-size="14.00">dev/eu&#45;west&#45;1/ew1b/eks</text>
</g>
<!-- dev/eu&#45;west&#45;1/ew1b/vpc&#45;&gt;dev/eu&#45;west&#45;1/ew1b/eks -->
<g id="edge3" class="edge">
<title>dev/eu&#45;west&#45;1/ew1b/vpc&#45;&gt;dev/eu&#45;west&#45;1/ew1b/eks</title>
<path fill="none" stroke="#1976d2" stroke-width="2" d="M403.7,-18C413.17,-18 422.89,-18 432.5,-18"/>
<polygon fill="#1976d2" stroke="#1976d2" stroke-width="2" points="432.26,-20.8 440.26,-18 432.26,-15.2 432.26,-20.8"/>
</g>
<!-- beta/eu&#45;west&#45;2/ew2a/vpc -->
<g id="node6" class="node">
<title>beta/eu&#45;west&#45;2/ew2a/vpc</title>
<polygon fill="#e3f2fd" stroke="#1976d2" points="405.5,-144 239.5,-144 239.5,-108 405.5,-108 405.5,-144"/>
<text xml:space="preserve" text-anchor="middle" x="322.5" y="-120.2" font-family="Helvetica,sans-Serif" font-size="14.00">beta/eu&#45;west&#45;2/ew2a/vpc</text>
</g>
<!-- beta/eu&#45;west&#45;2/ew2a/eks -->
<g id="node7" class="node">
<title>beta/eu&#45;west&#45;2/ew2a/eks</title>
<polygon fill="#e3f2fd" stroke="#1976d2" points="607.5,-144 441.5,-144 441.5,-108 607.5,-108 607.5,-144"/>
<text xml:space="preserve" text-anchor="middle" x="524.5" y="-120.2" font-family="Helvetica,sans-Serif" font-size="14.00">beta/eu&#45;west&#45;2/ew2a/eks</text>
</g>
<!-- beta/eu&#45;west&#45;2/ew2a/vpc&#45;&gt;beta/eu&#45;west&#45;2/ew2a/eks -->
<g id="edge5" class="edge">
<title>beta/eu&#45;west&#45;2/ew2a/vpc&#45;&gt;beta/eu&#45;west&#45;2/ew2a/eks</title>
<path fill="none" stroke="#1976d2" stroke-width="2" d="M405.71,-126C413.88,-126 422.21,-126 430.47,-126"/>
<polygon fill="#1976d2" stroke="#1976d2" stroke-width="2" points="430.26,-128.8 438.26,-126 430.26,-123.2 430.26,-128.8"/>
</g>
<!-- beta/global/shared/apex_zones -->
<g id="node8" class="node">
<title>beta/global/shared/apex_zones</title>
<polygon fill="#e3f2fd" stroke="#1976d2" points="203.5,-144 0,-144 0,-108 203.5,-108 203.5,-144"/>
<text xml:space="preserve" text-anchor="middle" x="101.75" y="-120.2" font-family="Helvetica,sans-Serif" font-size="14.00">beta/global/shared/apex_zones</text>
</g>
<!-- beta/global/shared/apex_zones&#45;&gt;beta/eu&#45;west&#45;2/ew2a/vpc -->
<g id="edge6" class="edge">
<title>beta/global/shared/apex_zones&#45;&gt;beta/eu&#45;west&#45;2/ew2a/vpc</title>
<path fill="none" stroke="#1976d2" stroke-width="2" d="M203.8,-126C211.96,-126 220.18,-126 228.28,-126"/>
<polygon fill="#1976d2" stroke="#1976d2" stroke-width="2" points="228.2,-128.8 236.2,-126 228.2,-123.2 228.2,-128.8"/>
</g>
</g>
</svg>
