<?xml version="1.0" encoding="UTF-8" standalone="no"?>
<!DOCTYPE svg PUBLIC "-//W3C//DTD SVG 1.1//EN"
 "http://www.w3.org/Graphics/SVG/1.1/DTD/svg11.dtd">
<!-- Generated by graphviz version 13.0.1 (20250615.1724)
 -->
<!-- Title: tforder Pages: 1 -->
<svg width="845pt" height="98pt"
 viewBox="0.00 0.00 845.00 98.00" xmlns="http://www.w3.org/2000/svg" xmlns:xlink="http://www.w3.org/1999/xlink">
<g id="graph0" class="graph" transform="scale(1 1) rotate(0) translate(4 94)">
<title>tforder</title>
<polygon fill="#fafafa" stroke="none" points="-4,4 -4,-94 841,-94 841,4 -4,4"/>
<!-- deployments/dev/eu&#45;west&#45;1/ew1a/vpc -->
<g id="node1" class="node">
<title>deployments/dev/eu&#45;west&#45;1/ew1a/vpc</title>
<polygon fill="#e3f2fd" stroke="#1976d2" points="558.5,-90 316,-90 316,-54 558.5,-54 558.5,-90"/>
<text xml:space="preserve" text-anchor="middle" x="437.25" y="-66.2" font-family="Helvetica,sans-Serif" font-size="14.00">deployments/dev/eu&#45;west&#45;1/ew1a/vpc</text>
</g>
<!-- deployments/dev/eu&#45;west&#45;1/ew1a/eks -->
<g id="node2" class="node">
<title>deployments/dev/eu&#45;west&#45;1/ew1a/eks</title>
<polygon fill="#e3f2fd" stroke="#1976d2" points="837,-90 594.5,-90 594.5,-54 837,-54 837,-90"/>
<text xml:space="preserve" text-anchor="middle" x="715.75" y="-66.2" font-family="Helvetica,sans-Serif" font-size="14.00">deployments/dev/eu&#45;west&#45;1/ew1a/eks</text>
</g>
<!-- deployments/dev/eu&#45;west&#45;1/ew1a/vpc&#45;&gt;deployments/dev/eu&#45;west&#45;1/ew1a/eks -->
<g id="edge1" class="edge">
<title>deployments/dev/eu&#45;west&#45;1/ew1a/vpc&#45;&gt;deployments/dev/eu&#45;west&#45;1/ew1a/eks</title>
<path fill="none" stroke="#1976d2" stroke-width="2" d="M558.72,-72C566.92,-72 575.2,-72 583.45,-72"/>
<polygon fill="#1976d2" stroke="#1976d2" stroke-width="2" points="583.23,-74.8 591.23,-72 583.23,-69.2 583.23,-74.8"/>
</g>
<!-- deployments/dev/global/shared/apex_zones -->
<g id="node3" class="node">
<title>deployments/dev/global/shared/apex_zones</title>
<polygon fill="#e3f2fd" stroke="#1976d2" points="280,-63 0,-63 0,-27 280,-27 280,-63"/>
<text xml:space="preserve" text-anchor="middle" x="140" y="-39.2" font-family="Helvetica,sans-Serif" font-size="14.00">deployments/dev/global/shared/apex_zones</text>
</g>
<!-- deployments/dev/global/shared/apex_zones&#45;&gt;deployments/dev/eu&#45;west&#45;1/ew1a/vpc -->
<g id="edge2" class="edge">
<title>deployments/dev/global/shared/apex_zones&#45;&gt;deployments/dev/eu&#45;west&#45;1/ew1a/vpc</title>
<path fill="none" stroke="#1976d2" stroke-width="2" d="M280.41,-57.75C288.52,-58.49 296.66,-59.24 304.74,-59.97"/>
<polygon fill="#1976d2" stroke="#1976d2" stroke-width="2" points="304.47,-62.76 312.69,-60.7 304.98,-57.18 304.47,-62.76"/>
</g>
<!-- deployments/dev/eu&#45;west&#45;1/ew1b/vpc -->
<g id="node4" class="node">
<title>deployments/dev/eu&#45;west&#45;1/ew1b/vpc</title>
<polygon fill="#e3f2fd" stroke="#1976d2" points="558.5,-36 316,-36 316,0 558.5,0 558.5,-36"/>
<text xml:space="preserve" text-anchor="middle" x="437.25" y="-12.2" font-family="Helvetica,sans-Serif" font-size="14.00">deployments/dev/eu&#45;west&#45;1/ew1b/vpc</text>
</g>
<!-- deployments/dev/global/shared/apex_zones&#45;&gt;deployments/dev/eu&#45;west&#45;1/ew1b/vpc -->
<g id="edge4" class="edge">
<title>deployments/dev/global/shared/apex_zones&#45;&gt;deployments/dev/eu&#45;west&#45;1/ew1b/vpc</title>
<path fill="none" stroke="#1976d2" stroke-width="2" d="M280.41,-32.25C288.52,-31.51 296.66,-30.76 304.74,-30.03"/>
<polygon fill="#1976d2" stroke="#1976d2" stroke-width="2" points="304.98,-32.82 312.69,-29.3 304.47,-27.24 304.98,-32.82"/>
</g>
<!-- deployments/dev/eu&#45;west&#45;1/ew1b/eks -->
<g id="node5" class="node">
<title>deployments/dev/eu&#45;west&#45;1/ew1b/eks</title>
<polygon fill="#e3f2fd" stroke="#1976d2" points="837,-36 594.5,-36 594.5,0 837,0 837,-36"/>
<text xml:space="preserve" text-anchor="middle" x="715.75" y="-12.2" font-family="Helvetica,sans-Serif" font-size="14.00">deployments/dev/eu&#45;west&#45;1/ew1b/eks</text>
</g>
<!-- deployments/dev/eu&#45;west&#45;1/ew1b/vpc&#45;&gt;deployments/dev/eu&#45;west&#45;1/ew1b/eks -->
<g id="edge3" class="edge">
<title>deployments/dev/eu&#45;west&#45;1/ew1b/vpc&#45;&gt;deployments/dev/eu&#45;west&#45;1/ew1b/eks</title>
<path fill="none" stroke="#1976d2" stroke-width="2" d="M558.72,-18C566.92,-18 575.2,-18 583.45,-18"/>
<polygon fill="#1976d2" stroke="#1976d2" stroke-width="2" points="583.23,-20.8 591.23,-18 583.23,-15.2 583.23,-20.8"/>
</g>
</g>
</svg>
