<?xml version="1.0" encoding="UTF-8" standalone="no"?>
<!DOCTYPE svg PUBLIC "-//W3C//DTD SVG 1.1//EN"
 "http://www.w3.org/Graphics/SVG/1.1/DTD/svg11.dtd">
<!-- Generated by graphviz version 13.0.1 (20250615.1724)
 -->
<!-- Title: tforder Pages: 1 -->
<svg width="845pt" height="44pt"
 viewBox="0.00 0.00 845.00 44.00" xmlns="http://www.w3.org/2000/svg" xmlns:xlink="http://www.w3.org/1999/xlink">
<g id="graph0" class="graph" transform="scale(1 1) rotate(0) translate(4 40)">
<title>tforder</title>
<polygon fill="#fafafa" stroke="none" points="-4,4 -4,-40 841,-40 841,4 -4,4"/>
<!-- deployments/dev/eu&#45;west&#45;1/ew1a/vpc -->
<g id="node1" class="node">
<title>deployments/dev/eu&#45;west&#45;1/ew1a/vpc</title>
<polygon fill="#e3f2fd" stroke="#1976d2" points="558.5,-36 316,-36 316,0 558.5,0 558.5,-36"/>
<text xml:space="preserve" text-anchor="middle" x="437.25" y="-12.2" font-family="Helvetica,sans-Serif" font-size="14.00">deployments/dev/eu&#45;west&#45;1/ew1a/vpc</text>
</g>
<!-- deployments/dev/eu&#45;west&#45;1/ew1a/eks -->
<g id="node2" class="node">
<title>deployments/dev/eu&#45;west&#45;1/ew1a/eks</title>
<polygon fill="#e3f2fd" stroke="#1976d2" points="837,-36 594.5,-36 594.5,0 837,0 837,-36"/>
<text xml:space="preserve" text-anchor="middle" x="715.75" y="-12.2" font-family="Helvetica,sans-Serif" font-size="14.00">deployments/dev/eu&#45;west&#45;1/ew1a/eks</text>
</g>
<!-- deployments/dev/eu&#45;west&#45;1/ew1a/vpc&#45;&gt;deployments/dev/eu&#45;west&#45;1/ew1a/eks -->
<g id="edge1" class="edge">
<title>deployments/dev/eu&#45;west&#45;1/ew1a/vpc&#45;&gt;deployments/dev/eu&#45;west&#45;1/ew1a/eks</title>
<path fill="none" stroke="#1976d2" stroke-width="2" d="M558.72,-18C566.92,-18 575.2,-18 583.45,-18"/>
<polygon fill="#1976d2" stroke="#1976d2" stroke-width="2" points="583.23,-20.8 591.23,-18 583.23,-15.2 583.23,-20.8"/>
</g>
<!-- deployments/dev/global/shared/apex_zones -->
<g id="node3" class="node">
<title>deployments/dev/global/shared/apex_zones</title>
<polygon fill="#e3f2fd" stroke="#1976d2" points="280,-36 0,-36 0,0 280,0 280,-36"/>
<text xml:space="preserve" text-anchor="middle" x="140" y="-12.2" font-family="Helvetica,sans-Serif" font-size="14.00">deployments/dev/global/shared/apex_zones</text>
</g>
<!-- deployments/dev/global/shared/apex_zones&#45;&gt;deployments/dev/eu&#45;west&#45;1/ew1a/vpc -->
<g id="edge2" class="edge">
<title>deployments/dev/global/shared/apex_zones&#45;&gt;deployments/dev/eu&#45;west&#45;1/ew1a/vpc</title>
<path fill="none" stroke="#1976d2" stroke-width="2" d="M280.41,-18C288.52,-18 296.66,-18 304.74,-18"/>
<polygon fill="#1976d2" stroke="#1976d2" stroke-width="2" points="304.68,-20.8 312.68,-18 304.68,-15.2 304.68,-20.8"/>
</g>
</g>
</svg>
